Coordinates
version=1
nRows=31
nColumns=33
inDegrees=yes

Units are S.I. units (second, meters, Newtons, ...)
Angles are in degrees.

endheader
time	ground_thorax_rot_x	ground_thorax_rot_y	ground_thorax_rot_z	ground_thorax_tx	ground_thorax_ty	ground_thorax_tz	clav_prot_r	clav_elev_r	scapula_abduction_r	scapula_elevation_r	scapula_upward_rot_r	scapula_winging_r	shoulder_elv_r	plane_of_elev_r	axial_rot_r	elbow_flexion_r	pro_sup_r	wrist_flex_r	wrist_dev_r	clav_prot_l	clav_elev_l	scapula_abduction_l	scapula_elevation_l	scapula_upward_rot_l	scapula_winging_l	shoulder_elv_l	plane_of_elev_l	axial_rot_l	elbow_flexion_l	pro_sup_l	wrist_flex_l	wrist_dev_l	
6.8300	-38.770616	-2.663787	-1.004299	-7.059031	807.412421	3.337283	3.453027	-45.000000	44.999996	-45.000000	-4.180995	-2246.614354	-1737.357141	28.704442	74.574844	1089.212359	10.980309	16.964456	12.472604	14.877385	41.755420	-44.999999	-39.815865	-20.323918	1517.177966	-2981.520741	135.655861	-180.016040	1445.731075	17.455980	13.742896	-18.385870	
6.8400	-38.754151	-2.910422	-1.021611	-6.663638	806.923450	3.521778	3.526489	-45.000000	44.999993	-45.000000	-4.394325	-2246.602155	-1737.395537	28.720454	74.540373	1089.143962	11.023380	16.940759	12.448677	14.726475	41.629733	-44.999998	-39.670931	-20.363152	1517.269410	-2981.489396	135.646835	-180.012065	1445.610598	17.689054	13.621167	-18.378074	
6.8500	-38.715882	-3.197820	-0.995586	-6.375220	806.454661	3.694885	3.578667	-45.000000	44.999988	-45.000000	-4.657647	-2246.600276	-1737.387376	28.737994	74.532702	1089.096621	11.063489	16.928837	12.374123	14.531746	41.428732	-44.999996	-39.481607	-20.395601	1517.407120	-2981.477552	135.656156	-179.994178	1445.499039	17.925165	13.501544	-18.352738	
6.8600	-38.705165	-3.385752	-1.061024	-6.312524	806.040834	3.845371	3.600495	-45.000000	44.999979	-45.000000	-4.804721	-2246.614953	-1737.399606	28.740119	74.505392	1089.041844	11.104086	16.914945	12.333251	14.429425	41.359545	-44.999992	-39.383533	-20.376981	1517.506703	-2981.474205	135.662398	-179.992190	1445.399262	18.181942	13.361552	-18.349627	
6.8700	-38.704557	-3.527740	-1.157958	-6.497639	805.672343	3.967863	3.615516	-45.000000	44.999962	-45.000000	-4.896794	-2246.670158	-1737.418881	28.743229	74.482545	1088.984693	11.146080	16.900985	12.312310	14.362300	41.351937	-44.999986	-39.329564	-20.360249	1517.601208	-2981.465605	135.663330	-179.993491	1445.311686	18.451536	13.209136	-18.366431	
6.8800	-38.712846	-3.641639	-1.267687	-6.969089	805.343842	4.054846	3.612822	-45.000000	44.999932	-45.000000	-4.975918	-2246.745472	-1737.425684	28.733155	74.485464	1088.929430	11.188835	16.890148	12.274773	14.336923	41.379880	-44.999975	-39.311402	-20.349486	1517.697149	-2981.462715	135.675379	-179.997041	1445.236582	18.730896	13.047412	-18.385974	
6.8900	-38.729055	-3.744471	-1.369609	-7.739663	805.039225	4.100048	3.623468	-45.000000	44.999877	-45.000000	-5.053555	-2246.865128	-1737.431273	28.725199	74.521261	1088.874903	11.235886	16.879619	12.248046	14.330392	41.432023	-44.999955	-39.326014	-20.394756	1517.798196	-2981.448159	135.680248	-179.999999	1445.164279	19.010830	12.876780	-18.421181	
6.9000	-38.746160	-3.865147	-1.431747	-8.811160	804.739388	4.098160	3.631184	-45.000000	44.999780	-45.000000	-5.189955	-2247.000746	-1737.404628	28.700043	74.613804	1088.832742	11.285845	16.874721	12.170181	14.340800	41.462739	-44.999920	-39.348345	-20.495010	1517.915048	-2981.439482	135.702579	-179.999998	1445.099865	19.280190	12.706575	-18.444257	
6.9100	-38.772055	-3.986757	-1.468218	-10.186062	804.429100	4.044577	3.669557	-45.000000	44.999607	-45.000000	-5.354079	-2247.185715	-1737.380448	28.680779	74.749695	1088.796567	11.345579	16.869599	12.108417	14.365253	41.503050	-44.999857	-39.399700	-20.683137	1518.039839	-2981.419207	135.712568	-179.999997	1445.038422	19.528482	12.535235	-18.484897	
6.9200	-38.802390	-4.121428	-1.466987	-11.867703	804.096908	3.936035	3.707587	-45.000000	44.999296	-45.000000	-5.588207	-2247.375480	-1737.324115	28.636115	74.941371	1088.778000	11.413806	16.869601	11.984158	14.415791	41.529362	-44.999744	-39.464721	-20.934143	1518.167204	-2981.407719	135.749142	-179.999995	1444.994356	19.750226	12.375796	-18.510068	
6.9300	-38.844219	-4.265513	-1.432184	-13.859178	803.735277	3.770734	3.783969	-45.000000	44.998738	-45.000000	-5.874899	-2247.601718	-1737.268087	28.589991	75.171407	1088.772418	11.501196	16.871344	11.875637	14.486197	41.565790	-44.999541	-39.563053	-21.290261	1518.291836	-2981.385315	135.784503	-179.999992	1444.962240	19.940982	12.222697	-18.550952	
6.9400	-38.894433	-4.417598	-1.363715	-16.162504	803.340094	3.548431	3.876284	-45.000000	44.997740	-45.000000	-6.238648	-2247.835858	-1737.195147	28.525726	75.442718	1088.781032	11.611672	16.876781	11.732799	14.583602	41.597918	-44.999179	-39.680800	-21.719732	1518.414615	-2981.364871	135.840888	-179.999985	1444.955196	20.103309	12.085682	-18.584967	
6.9500	-38.954677	-4.582018	-1.253390	-18.777763	802.910359	3.270179	4.022403	-45.000000	44.995950	-45.000000	-6.667772	-2248.118723	-1737.138329	28.467633	75.729229	1088.794351	11.759849	16.881494	11.628389	14.708440	41.650181	-44.998529	-39.830280	-22.289132	1518.532056	-2981.320024	135.878371	-179.999973	1444.960068	20.245303	11.950087	-18.636348	
6.9600	-39.016669	-4.758640	-1.097460	-21.702448	802.447779	2.938319	4.193263	-45.000000	44.992749	-45.000000	-7.184197	-2248.426377	-1737.072880	28.403014	76.039183	1088.808375	11.954491	16.885538	11.496523	14.869838	41.700306	-44.997365	-39.996827	-22.979296	1518.645323	-2981.264161	135.906510	-179.999952	1444.985728	20.376107	11.813454	-18.674105	
6.9700	-39.081405	-4.960240	-0.894736	-24.931338	801.956323	2.556327	4.406176	-45.000000	44.987001	-45.000000	-7.779527	-2248.781269	-1737.021455	28.351454	76.370509	1088.826713	12.214263	16.890971	11.388264	15.069715	41.749277	-44.995277	-40.182837	-23.815790	1518.761547	-2981.188868	135.905459	-179.999916	1445.007840	20.501934	11.665888	-18.713176	
6.9800	-39.140675	-5.160120	-0.680713	-28.456407	801.441887	2.128882	4.619422	-45.000000	44.976746	-45.000000	-8.413185	-2249.163615	-1736.969967	28.305179	76.733556	1088.854213	12.548481	16.900141	11.261746	15.276347	41.779115	-44.991550	-40.368216	-24.711769	1518.886022	-2981.115526	135.897835	-179.999843	1445.036931	20.631891	11.520616	-18.741199	
6.9900	-39.196204	-5.388207	-0.426561	-32.267690	800.911743	1.661806	4.851573	-45.000000	44.958259	-45.000000	-9.124840	-2249.575195	-1736.930501	28.267674	77.149788	1088.891222	12.978046	16.916394	11.144612	15.512647	41.782750	-44.984837	-40.550707	-25.704709	1519.017379	-2981.036515	135.883618	-179.999739	1445.058606	20.769576	11.383956	-18.772045	
7.0000	-39.245588	-5.617163	-0.158626	-36.353006	800.374265	1.162087	5.067095	-45.000000	44.925473	-45.000000	-9.888285	-2249.991874	-1736.892837	28.227962	77.627286	1088.930071	13.512522	16.937422	11.007063	15.748895	41.750915	-44.972912	-40.728314	-26.742532	1519.147712	-2980.960612	135.873314	-179.999476	1445.091517	20.925948	11.261509	-18.796148	
7.0100	-39.295537	-5.876231	0.151795	-40.698516	799.838360	0.637492	5.289791	-45.000000	44.865820	-45.000000	-10.758616	-2250.403780	-1736.862382	28.188361	78.174858	1088.980223	14.167951	16.968670	10.874948	16.005857	41.686158	-44.951272	-40.913963	-27.862252	1519.268426	-2980.884849	135.870154	-179.999218	1445.130661	21.105342	11.161875	-18.827199	
7.0200	-39.344823	-6.126101	0.474027	-45.288030	799.313263	0.095990	5.486118	-45.000000	44.761546	-45.000000	-11.676811	-2250.803403	-1736.836959	28.138586	78.759690	1089.033152	14.945110	17.003148	10.742293	16.225738	41.609292	-44.913289	-41.120262	-29.023958	1519.351903	-2980.805503	135.874511	-179.998879	1445.189402	21.328419	11.080035	-18.862083	
7.0300	-39.399471	-6.450432	0.912297	-50.103526	798.808295	-0.454941	5.727275	-45.000000	44.567555	-45.000000	-12.845183	-2251.169265	-1736.794649	28.094152	79.370921	1089.104214	15.865907	17.048812	10.607520	16.482312	41.513221	-44.843073	-41.362043	-30.333772	1519.389681	-2980.719039	135.881846	-179.998643	1445.259658	21.580883	11.025404	-18.911768	
7.0400	-39.466664	-6.822726	1.448450	-55.124638	798.332844	-1.009048	5.966242	-45.000000	44.240177	-45.000000	-14.245684	-2251.483996	-1736.734739	28.054105	79.969415	1089.187626	16.934215	17.098643	10.469436	16.719444	41.410765	-44.723370	-41.673324	-31.797684	1519.343492	-2980.603383	135.874831	-179.997901	1445.353305	21.880826	10.979562	-18.966082	
7.0500	-39.570709	-7.400466	2.259501	-60.329425	797.896496	-1.561853	6.276528	-45.000000	43.597596	-45.000000	-16.332986	-2251.632963	-1736.613934	28.066374	80.507979	1089.307460	18.199653	17.162643	10.323415	17.004902	41.304774	-44.491996	-42.099236	-33.545599	1519.190658	-2980.454661	135.860395	-179.997465	1445.452284	22.165487	10.960936	-19.035742	
7.0600	-39.714368	-8.158019	3.316529	-65.694395	797.508999	-2.111020	6.576983	-45.000000	42.603287	-45.000000	-19.044900	-2251.608293	-1736.434985	28.124867	80.985450	1089.453745	19.662968	17.232567	10.160718	17.264735	41.215391	-44.124855	-42.652320	-35.529363	1518.900396	-2980.244640	135.842397	-179.997154	1445.561537	22.474282	10.964098	-19.117884	
7.0700	-39.883101	-9.112820	4.624223	-71.195390	797.180657	-2.655956	6.939248	-45.000000	41.310404	-45.000000	-22.360135	-2251.443166	-1736.197031	28.240471	81.498855	1089.629865	21.322578	17.306092	9.966891	17.572779	41.109501	-43.631741	-43.276512	-37.682843	1518.543075	-2980.002671	135.826639	-179.997530	1445.668370	22.824036	11.005415	-19.235091	
7.0800	-40.046518	-10.077228	5.954649	-76.807615	796.922492	-3.197175	7.229020	-45.000000	39.903088	-45.000000	-25.797842	-2251.233680	-1735.915690	28.383888	81.956972	1089.812448	23.102558	17.384406	9.780444	17.802353	40.978081	-43.074550	-43.884134	-39.779267	1518.181879	-2979.722735	135.807051	-179.997843	1445.778249	23.308617	11.052906	-19.372393	
7.0900	-40.178708	-10.991484	7.217094	-82.505913	796.746243	-3.735379	7.533288	-45.000000	38.516436	-45.000000	-29.112247	-2251.047961	-1735.608891	28.537014	82.464312	1090.006117	24.961466	17.463473	9.586288	17.985659	40.822338	-42.492752	-44.395285	-41.660810	1517.892955	-2979.460371	135.806950	-179.998696	1445.882831	23.945318	11.109436	-19.540795	
7.1000	-40.268495	-11.697079	8.215449	-88.264739	796.664387	-4.270747	7.715876	-45.000000	37.321667	-45.000000	-31.938965	-2250.957323	-1735.295011	28.684210	82.882343	1090.192185	26.821632	17.547814	9.416513	18.027401	40.654358	-41.931502	-44.753866	-43.120900	1517.720585	-2979.221642	135.826298	-179.999407	1445.987628	24.792691	11.170209	-19.731491	
7.1100	-40.313310	-12.165334	8.901911	-94.057995	796.689569	-4.802267	7.871114	-45.000000	36.417892	-45.000000	-34.128947	-2251.004252	-1735.008412	28.802091	83.331123	1090.381944	28.659029	17.630788	9.243982	17.995660	40.478685	-41.416683	-44.938947	-44.087653	1517.696836	-2979.053293	135.877800	-180.000000	1446.088128	25.836284	11.249677	-19.955739	
7.1200	-40.335539	-12.388398	9.278692	-99.859018	796.834254	-5.327528	7.914717	-45.000000	35.764021	-45.000000	-35.788473	-2251.134553	-1734.732636	28.903971	83.599077	1090.570674	30.447220	17.724829	9.109387	17.844783	40.316002	-40.949357	-44.996271	-44.617443	1517.783042	-2978.935387	135.950176	-180.000000	1446.190444	27.040231	11.336031	-20.198237	
7.1300	-40.354683	-12.482340	9.490801	-105.640295	797.109446	-5.842829	7.971242	-45.000000	35.245969	-45.000000	-37.138099	-2251.298378	-1734.484251	28.980036	83.852775	1090.767367	32.212748	17.818429	8.970058	17.669159	40.192388	-40.497963	-45.000000	-44.875836	1517.914827	-2978.875745	136.051986	-180.000000	1446.289448	28.326686	11.428550	-20.460218	
